<svg width="26" height="26" viewBox="0 0 26 26" fill="none" xmlns="http://www.w3.org/2000/svg">
<path d="M9.7487 22.7513C10.9453 22.7513 11.9154 21.7813 11.9154 20.5846C11.9154 19.388 10.9453 18.418 9.7487 18.418C8.55208 18.418 7.58203 19.388 7.58203 20.5846C7.58203 21.7813 8.55208 22.7513 9.7487 22.7513Z" stroke="#FF3E79" stroke-width="1.5" stroke-linecap="round" stroke-linejoin="round"/>
<path d="M18.4167 22.7513C19.6133 22.7513 20.5833 21.7813 20.5833 20.5846C20.5833 19.388 19.6133 18.418 18.4167 18.418C17.22 18.418 16.25 19.388 16.25 20.5846C16.25 21.7813 17.22 22.7513 18.4167 22.7513Z" stroke="#FF3E79" stroke-width="1.5" stroke-linecap="round" stroke-linejoin="round"/>
<path d="M4 3H6.11111L8.22222 15.8527C8.44993 16.5098 8.88188 17.074 9.45303 17.4603C10.0242 17.8467 10.7036 18.0343 11.3889 17.9948H18.7778C19.4631 18.0343 20.1425 17.8467 20.7136 17.4603C21.2848 17.074 21.7167 16.5098 21.9444 15.8527L23 8.3553H6.95556" stroke="#FF3E79" stroke-width="1.5" stroke-linecap="round" stroke-linejoin="round"/>
</svg>
