<svg width="41" height="31" viewBox="0 0 41 31" fill="none" xmlns="http://www.w3.org/2000/svg">
<path d="M40.2046 4.2509V27.201C40.2046 29.0484 38.7016 30.5514 36.8542 30.5514H3.35038C1.50298 30.5514 0 29.0484 0 27.201V17.1499C0 16.7798 0.300027 16.4798 0.670077 16.4798C1.04013 16.4798 1.34015 16.7798 1.34015 17.1499V27.201C1.34015 28.3094 2.24199 29.2113 3.35038 29.2113H36.8542C37.9626 29.2113 38.8644 28.3094 38.8644 27.201V4.2509C38.8644 3.14251 37.9626 2.24067 36.8542 2.24067H3.35038C2.24199 2.24067 1.34015 3.14251 1.34015 4.2509V6.9312H35.6816C36.0516 6.9312 36.3517 7.23123 36.3517 7.60128C36.3517 7.97133 36.0516 8.27136 35.6816 8.27136H1.34015V12.6269H35.6816C36.0516 12.6269 36.3517 12.9269 36.3517 13.2969C36.3517 13.667 36.0516 13.967 35.6816 13.967H0.670077C0.300027 13.967 0 13.667 0 13.2969V4.2509C0 2.40349 1.50298 0.900513 3.35038 0.900513H36.8542C38.7016 0.900513 40.2046 2.40349 40.2046 4.2509ZM34.844 21.6729C34.844 19.9527 32.9318 18.9095 31.4831 19.8455C32.9046 22.174 31.2221 25.1908 28.4783 25.1908C26.5385 25.1908 24.9604 23.6127 24.9604 21.6729C24.9604 18.7859 28.2637 17.1323 30.5723 18.848C32.8911 17.1327 36.1841 18.7913 36.1841 21.6729C36.1841 23.6127 34.606 25.1908 32.6662 25.1908C32.2962 25.1908 31.9962 24.8908 31.9962 24.5207C31.9962 24.1507 32.2962 23.8506 32.6662 23.8506C33.8671 23.8506 34.844 22.8738 34.844 21.6729ZM30.656 21.6729C30.656 20.472 29.6791 19.4951 28.4783 19.4951C27.2774 19.4951 26.3005 20.472 26.3005 21.6729C26.3005 22.8738 27.2774 23.8506 28.4783 23.8506C29.6791 23.8506 30.656 22.8738 30.656 21.6729ZM6.11445 20.249H11.7263C12.0964 20.249 12.3964 19.949 12.3964 19.5789C12.3964 19.2089 12.0964 18.9088 11.7263 18.9088H6.11445C5.7444 18.9088 5.44437 19.2089 5.44437 19.5789C5.44437 19.949 5.7444 20.249 6.11445 20.249ZM6.11445 24.437H11.7263C12.0964 24.437 12.3964 24.1369 12.3964 23.7669C12.3964 23.3968 12.0964 23.0968 11.7263 23.0968H6.11445C5.7444 23.0968 5.44437 23.3968 5.44437 23.7669C5.44437 24.1369 5.7444 24.437 6.11445 24.437Z" fill="#54514C" fill-opacity="0.75"/>
</svg>
