<svg width="17" height="37" viewBox="0 0 17 37" fill="none" xmlns="http://www.w3.org/2000/svg">
<path d="M0 19.9685C0 17.871 0 15.7735 0 13.6779C0.0315125 13.6798 0.0630249 13.6817 0.0945374 13.6817C1.62206 13.6817 3.14959 13.6817 4.67545 13.6817C4.79985 13.6817 4.79155 13.6987 4.79155 13.5512C4.79155 12.0533 4.79321 10.5534 4.79155 9.05549C4.79155 8.60724 4.80814 8.16089 4.85126 7.71643C4.88609 7.34572 4.93916 6.97691 5.00882 6.61378C5.13487 5.96316 5.31897 5.33335 5.57605 4.73568C6.04542 3.64249 6.71381 2.74411 7.59948 2.05945C8.20485 1.59229 8.86495 1.2632 9.56652 1.04191C9.8833 0.941671 10.2067 0.866018 10.5318 0.81306C10.7076 0.782799 10.8834 0.765777 11.0592 0.744972C11.3063 0.714711 11.5551 0.701472 11.8039 0.703363C12.27 0.707146 12.736 0.718494 13.2021 0.72795C13.4011 0.731733 13.6001 0.74119 13.8008 0.748755C13.9103 0.752538 14.0197 0.758212 14.1292 0.765777C14.3299 0.779016 14.5322 0.794147 14.7329 0.807386C14.8855 0.818734 15.0364 0.8263 15.189 0.84143C15.4295 0.864126 15.67 0.890605 15.9105 0.915192C15.9851 0.922757 16.0597 0.935997 16.136 0.947345C16.136 2.82166 16.136 4.69029 16.136 6.56649C16.1029 6.56649 16.0747 6.56649 16.0465 6.56649C15.1475 6.56649 14.2486 6.56839 13.348 6.56649C13.0495 6.56649 12.7526 6.57784 12.4557 6.62513C12.197 6.66674 11.9449 6.73293 11.7044 6.84452C11.2035 7.07715 10.8569 7.48001 10.6711 8.06254C10.5766 8.35948 10.5235 8.66777 10.5036 8.98173C10.4854 9.28245 10.4787 9.58506 10.4771 9.88578C10.4737 10.6612 10.4754 11.4348 10.4754 12.2102C10.4754 12.6623 10.4754 13.1162 10.4754 13.5682C10.4754 13.6023 10.4804 13.6363 10.4837 13.676C10.6943 13.676 10.895 13.676 11.0974 13.676C11.2997 13.676 11.5004 13.676 11.7027 13.676C11.9051 13.676 12.1058 13.676 12.3081 13.676C12.5104 13.676 12.7111 13.676 12.9135 13.676C13.1175 13.676 13.3215 13.676 13.5255 13.676C13.7278 13.676 13.9285 13.676 14.1308 13.676C14.3332 13.676 14.5339 13.676 14.7362 13.676C14.9386 13.676 15.1392 13.676 15.3416 13.676C15.5423 13.6779 15.743 13.6722 15.9486 13.6798C15.733 15.59 15.5174 17.4889 15.3034 19.3878C15.2835 19.5581 15.2653 19.7283 15.2471 19.8966C15.2454 19.9061 15.2437 19.9174 15.2404 19.9269C15.2388 19.9325 15.2371 19.9363 15.2354 19.9401C15.2338 19.942 15.2338 19.9458 15.2321 19.9458C15.2305 19.9477 15.2288 19.9496 15.2155 19.959C13.6466 19.959 12.0676 19.959 10.4787 19.959C10.4771 20.0101 10.4754 20.0517 10.4754 20.0952C10.4754 25.389 10.4754 30.6829 10.4754 35.9748C10.4754 36.0051 10.4771 36.0354 10.4754 36.0675C10.4737 36.0864 10.4704 36.1053 10.4688 36.1242C10.3792 36.1394 4.84628 36.1356 4.78824 36.1186C4.78824 36.0807 4.78824 36.041 4.78824 36.0013C4.78824 30.6942 4.78824 25.389 4.78824 20.082C4.78824 19.9439 4.79321 19.959 4.67877 19.959C3.14793 19.959 1.61543 19.959 0.0845861 19.959C0.0580493 19.9647 0.0298539 19.9666 0 19.9685Z" fill="white"/>
</svg>
