<svg width="32" height="35" viewBox="0 0 32 35" fill="none" xmlns="http://www.w3.org/2000/svg">
<g clip-path="url(#clip0_43_1169)">
<mask id="path-1-inside-1_43_1169" fill="white">
<path d="M7.86799 17.384C7.86716 15.6035 8.34824 13.8628 9.25032 12.3823C10.1524 10.9018 11.4349 9.74807 12.9354 9.06728C14.4359 8.38649 16.087 8.20923 17.6794 8.55796C19.2719 8.90668 20.7341 9.76569 21.881 11.0262C23.0279 12.2867 23.8078 13.8921 24.122 15.6389C24.4362 17.3858 24.2705 19.1956 23.6459 20.8391C23.0214 22.4827 21.966 23.886 20.6135 24.8715C19.2611 25.857 17.6723 26.3802 16.0484 26.375C14.9724 26.3752 13.9069 26.1426 12.913 25.6906C11.9192 25.2385 11.0164 24.5759 10.2565 23.7407C9.49659 22.9055 8.89445 21.9141 8.48459 20.8233C8.07472 19.7325 7.86519 18.5637 7.86799 17.384ZM16.0654 11.5431C15.0117 11.5444 13.982 11.8884 13.1067 12.5317C12.2314 13.1749 11.5499 14.0884 11.1484 15.1566C10.7469 16.2248 10.6435 17.3996 10.8514 18.5322C11.0592 19.6648 11.5688 20.7044 12.3158 21.5193C13.0628 22.3341 14.0135 22.8876 15.0476 23.1097C16.0816 23.3318 17.1525 23.2125 18.1247 22.7669C19.0969 22.3213 19.9267 21.5694 20.5089 20.6065C21.0911 19.6436 21.3996 18.5128 21.3954 17.3575C21.3857 15.8136 20.8202 14.3364 19.8219 13.2475C18.8237 12.1585 17.4736 11.546 16.0654 11.5431Z"/>
</mask>
<path d="M7.86799 17.384C7.86716 15.6035 8.34824 13.8628 9.25032 12.3823C10.1524 10.9018 11.4349 9.74807 12.9354 9.06728C14.4359 8.38649 16.087 8.20923 17.6794 8.55796C19.2719 8.90668 20.7341 9.76569 21.881 11.0262C23.0279 12.2867 23.8078 13.8921 24.122 15.6389C24.4362 17.3858 24.2705 19.1956 23.6459 20.8391C23.0214 22.4827 21.966 23.886 20.6135 24.8715C19.2611 25.857 17.6723 26.3802 16.0484 26.375C14.9724 26.3752 13.9069 26.1426 12.913 25.6906C11.9192 25.2385 11.0164 24.5759 10.2565 23.7407C9.49659 22.9055 8.89445 21.9141 8.48459 20.8233C8.07472 19.7325 7.86519 18.5637 7.86799 17.384ZM16.0654 11.5431C15.0117 11.5444 13.982 11.8884 13.1067 12.5317C12.2314 13.1749 11.5499 14.0884 11.1484 15.1566C10.7469 16.2248 10.6435 17.3996 10.8514 18.5322C11.0592 19.6648 11.5688 20.7044 12.3158 21.5193C13.0628 22.3341 14.0135 22.8876 15.0476 23.1097C16.0816 23.3318 17.1525 23.2125 18.1247 22.7669C19.0969 22.3213 19.9267 21.5694 20.5089 20.6065C21.0911 19.6436 21.3996 18.5128 21.3954 17.3575C21.3857 15.8136 20.8202 14.3364 19.8219 13.2475C18.8237 12.1585 17.4736 11.546 16.0654 11.5431Z" fill="#FAA43F" fill-opacity="0.9"/>
<path d="M16.0484 26.375L16.0645 21.375L16.0559 21.375L16.0474 21.375L16.0484 26.375ZM16.0654 11.5431L16.0755 6.54315L16.0675 6.54314L16.0595 6.54315L16.0654 11.5431ZM21.3954 17.3575L26.3954 17.3393L26.3953 17.326L21.3954 17.3575ZM12.868 17.3817C12.8676 16.4937 13.1094 15.658 13.5202 14.9839L4.98049 9.78064C3.58705 12.0676 2.86674 14.7134 2.86799 17.3864L12.868 17.3817ZM13.5202 14.9839C13.9289 14.3132 14.4637 13.8644 15.0013 13.6206L10.8696 4.51401C8.40609 5.63171 6.37595 7.49039 4.98049 9.78064L13.5202 14.9839ZM15.0013 13.6206C15.5311 13.3802 16.083 13.3269 16.6098 13.4422L18.749 3.67369C16.0909 3.09161 13.3408 3.39281 10.8696 4.51401L15.0013 13.6206ZM16.6098 13.4422C17.1419 13.5587 17.6997 13.8603 18.1827 14.3911L25.5793 7.66133C23.7685 5.67111 21.4018 4.25462 18.749 3.67369L16.6098 13.4422ZM18.1827 14.3911C18.67 14.9267 19.0459 15.662 19.201 16.524L29.043 14.7538C28.5697 12.1222 27.3858 9.64679 25.5793 7.66133L18.1827 14.3911ZM19.201 16.524C19.3561 17.3867 19.2711 18.2761 18.972 19.063L28.3198 22.6152C29.2699 20.115 29.5162 17.3848 29.043 14.7538L19.201 16.524ZM18.972 19.063C18.6737 19.8481 18.1968 20.4459 17.6691 20.8304L23.558 28.9126C25.7353 27.3261 27.3691 25.1172 28.3198 22.6152L18.972 19.063ZM17.6691 20.8304C17.1482 21.2099 16.5904 21.3767 16.0645 21.375L16.0322 31.3749C18.7541 31.3837 21.3739 30.504 23.558 28.9126L17.6691 20.8304ZM16.0474 21.375C15.6966 21.375 15.3365 21.2999 14.9831 21.1392L10.843 30.2419C12.4773 30.9853 14.2481 31.3753 16.0493 31.375L16.0474 21.375ZM14.9831 21.1392C14.6281 20.9778 14.2741 20.7267 13.9548 20.3758L6.55819 27.1056C7.75876 28.4251 9.21024 29.4993 10.843 30.2419L14.9831 21.1392ZM13.9548 20.3758C13.6347 20.024 13.3595 19.5819 13.1651 19.0646L3.80409 22.582C4.42943 24.2462 5.35847 25.787 6.55819 27.1056L13.9548 20.3758ZM13.1651 19.0646C12.9706 18.547 12.8666 17.9786 12.868 17.3959L2.86801 17.3721C2.86379 19.1488 3.17887 20.918 3.80409 22.582L13.1651 19.0646ZM16.0595 6.54315C13.908 6.54568 11.8495 7.2506 10.1458 8.50263L16.0676 16.5607C16.0808 16.551 16.0905 16.5454 16.0963 16.5424C16.1021 16.5394 16.1046 16.5386 16.1036 16.539C16.1025 16.5393 16.0989 16.5404 16.0927 16.5414C16.0866 16.5425 16.0792 16.5431 16.0713 16.5431L16.0595 6.54315ZM10.1458 8.50263C8.44894 9.74964 7.19244 11.4703 6.46808 13.3975L15.8287 16.9158C15.9073 16.7066 16.0139 16.6002 16.0676 16.5607L10.1458 8.50263ZM6.46808 13.3975C5.74437 15.323 5.5635 17.4182 5.93346 19.4345L15.7693 17.6299C15.7236 17.3809 15.7495 17.1266 15.8287 16.9158L6.46808 13.3975ZM5.93346 19.4345C6.30353 21.4515 7.22042 23.3602 8.6301 24.8979L16.0015 18.1406C15.9173 18.0486 15.8148 17.8781 15.7693 17.6299L5.93346 19.4345ZM8.6301 24.8979C10.0442 26.4405 11.902 27.5481 13.9976 27.9983L16.0975 18.2212C16.1082 18.2235 16.1054 18.2249 16.0898 18.2158C16.0739 18.2065 16.042 18.1847 16.0015 18.1406L8.6301 24.8979ZM13.9976 27.9983C16.0984 28.4495 18.2676 28.2017 20.2081 27.3122L16.0414 18.2216C16.0352 18.2245 16.0405 18.2212 16.0557 18.2195C16.0712 18.2178 16.0864 18.2188 16.0975 18.2212L13.9976 27.9983ZM20.2081 27.3122C22.1409 26.4263 23.7151 24.9673 24.7876 23.1935L16.2302 18.0195C16.1382 18.1716 16.0529 18.2163 16.0414 18.2216L20.2081 27.3122ZM24.7876 23.1935C25.858 21.4231 26.4029 19.387 26.3954 17.3393L16.3955 17.3758C16.3964 17.6387 16.3242 17.864 16.2302 18.0195L24.7876 23.1935ZM26.3953 17.326C26.3782 14.6034 25.3845 11.9162 23.5076 9.86881L16.1362 16.6262C16.2558 16.7567 16.3932 17.0238 16.3955 17.3891L26.3953 17.326ZM23.5076 9.86881C21.617 7.80639 18.9572 6.54896 16.0755 6.54315L16.0553 16.5431C16.0328 16.5431 16.0229 16.5374 16.0315 16.5413C16.0412 16.5457 16.0811 16.566 16.1362 16.6262L23.5076 9.86881Z" fill="white" mask="url(#path-1-inside-1_43_1169)"/>
<mask id="path-3-inside-2_43_1169" fill="white">
<path d="M26.5166 8.03803C26.5155 8.45408 26.402 8.86043 26.1904 9.20579C25.9788 9.55114 25.6786 9.82001 25.3277 9.97845C24.9768 10.1369 24.591 10.1778 24.219 10.096C23.8469 10.0142 23.5053 9.81331 23.2373 9.5188C22.9693 9.22428 22.7869 8.84929 22.7131 8.44118C22.6393 8.03308 22.6774 7.61015 22.8227 7.2258C22.968 6.84144 23.2139 6.51291 23.5293 6.28166C23.8448 6.05042 24.2156 5.92684 24.5951 5.92653C24.8481 5.92529 25.0988 5.97909 25.3328 6.08483C25.5667 6.19056 25.7791 6.34611 25.9579 6.54249C26.1366 6.73887 26.278 6.97217 26.3739 7.22889C26.4698 7.4856 26.5183 7.76062 26.5166 8.03803Z"/>
</mask>
<path d="M26.5166 8.03803C26.5155 8.45408 26.402 8.86043 26.1904 9.20579C25.9788 9.55114 25.6786 9.82001 25.3277 9.97845C24.9768 10.1369 24.591 10.1778 24.219 10.096C23.8469 10.0142 23.5053 9.81331 23.2373 9.5188C22.9693 9.22428 22.7869 8.84929 22.7131 8.44118C22.6393 8.03308 22.6774 7.61015 22.8227 7.2258C22.968 6.84144 23.2139 6.51291 23.5293 6.28166C23.8448 6.05042 24.2156 5.92684 24.5951 5.92653C24.8481 5.92529 25.0988 5.97909 25.3328 6.08483C25.5667 6.19056 25.7791 6.34611 25.9579 6.54249C26.1366 6.73887 26.278 6.97217 26.3739 7.22889C26.4698 7.4856 26.5183 7.76062 26.5166 8.03803Z" fill="white"/>
<path d="M26.5166 8.03803L21.5167 8.00751L21.5167 8.01602L21.5166 8.02454L26.5166 8.03803ZM24.5951 5.92653L24.5992 10.9265L24.6094 10.9265L24.6196 10.9265L24.5951 5.92653ZM21.5166 8.02454C21.5179 7.54942 21.6458 7.05256 21.927 6.59357L30.4537 11.818C31.1582 10.6683 31.5131 9.35873 31.5166 8.05152L21.5166 8.02454ZM21.927 6.59357C22.2103 6.13125 22.6584 5.69767 23.27 5.42148L27.3854 14.5354C28.6988 13.9424 29.7473 12.971 30.4537 11.818L21.927 6.59357ZM23.27 5.42148C23.8894 5.14182 24.6011 5.06054 25.2927 5.21262L23.1452 14.9793C24.5809 15.295 26.0643 15.1319 27.3854 14.5354L23.27 5.42148ZM25.2927 5.21262C25.9791 5.36354 26.5403 5.71954 26.9353 6.15352L19.5393 12.8841C20.4703 13.9071 21.7147 14.6648 23.1452 14.9793L25.2927 5.21262ZM26.9353 6.15352C27.3259 6.58277 27.5474 7.07632 27.6333 7.55157L17.7928 9.3308C18.0263 10.6223 18.6127 11.8658 19.5393 12.8841L26.9353 6.15352ZM27.6333 7.55157C27.7191 8.02617 27.6779 8.52225 27.4998 8.99362L18.1457 5.45797C17.6769 6.69805 17.5594 8.03998 17.7928 9.3308L27.6333 7.55157ZM27.4998 8.99362C27.3209 9.46673 26.9913 9.9434 26.4854 10.3142L20.5732 2.2491C19.4365 3.08242 18.615 4.21616 18.1457 5.45797L27.4998 8.99362ZM26.4854 10.3142C25.9727 10.69 25.3159 10.9259 24.5992 10.9265L24.591 0.926537C23.1153 0.92774 21.7168 1.41081 20.5732 2.2491L26.4854 10.3142ZM24.6196 10.9265C24.1435 10.9288 23.6843 10.8268 23.2734 10.641L27.3921 1.52862C26.5134 1.13142 25.5527 0.921774 24.5705 0.926595L24.6196 10.9265ZM23.2734 10.641C22.8641 10.456 22.5243 10.1983 22.2599 9.90777L29.6558 3.17722C29.034 2.49395 28.2693 1.92508 27.3921 1.52862L23.2734 10.641ZM22.2599 9.90777C21.9964 9.61822 21.8097 9.29892 21.6901 8.97885L31.0577 5.47892C30.7462 4.64543 30.2767 3.85953 29.6558 3.17722L22.2599 9.90777ZM21.6901 8.97885C21.5707 8.6591 21.5148 8.33024 21.5167 8.00751L31.5165 8.06854C31.5219 7.191 31.3689 6.31209 31.0577 5.47892L21.6901 8.97885Z" fill="#1A3B59" mask="url(#path-3-inside-2_43_1169)"/>
<path d="M22.9448 1.63507H9.05527C4.87779 1.63507 1.49127 5.34814 1.49127 9.92844V25.0717C1.49127 29.652 4.87779 33.3651 9.05527 33.3651H22.9448C27.1223 33.3651 30.5088 29.652 30.5088 25.0717V9.92844C30.5088 5.34814 27.1223 1.63507 22.9448 1.63507Z" stroke="white" stroke-width="5" stroke-miterlimit="10"/>
</g>
<defs>
<clipPath id="clip0_43_1169">
<rect width="32" height="35" fill="white"/>
</clipPath>
</defs>
</svg>
