<svg width="34" height="35" viewBox="0 0 34 35" fill="none" xmlns="http://www.w3.org/2000/svg">
<path d="M33.5561 1.34351C33.5545 1.34192 33.5527 1.34052 33.5511 1.33893C33.2699 1.06022 32.8823 0.900513 32.4867 0.900513H32.4847C32.1428 0.900513 31.8081 1.01805 31.5425 1.23115C27.9268 4.11916 24.2976 7.10014 20.7556 10.0911C19.8943 10.8183 19.0323 11.5512 18.1711 12.2882L8.33776 2.45502C7.36676 1.48416 5.78696 1.48429 4.81603 2.45502L0.145878 7.12524C-0.048626 7.31981 -0.048626 7.63511 0.145878 7.82961C0.340382 8.02405 0.655746 8.02405 0.850183 7.82961L4.11173 4.56813L4.82447 5.28087L1.56299 8.54235C1.36848 8.73692 1.36848 9.05222 1.56299 9.24672C1.66021 9.34394 1.78771 9.39255 1.91514 9.39255C2.04257 9.39255 2.17007 9.34394 2.26729 9.24672L5.52884 5.98524L6.24158 6.69798L2.98003 9.95946C2.78553 10.154 2.78553 10.4693 2.98003 10.6638C3.07725 10.761 3.20475 10.8097 3.33218 10.8097C3.45962 10.8097 3.58712 10.761 3.68434 10.6638L6.94588 7.40229L7.65862 8.11502L4.39714 11.3765C4.20264 11.5711 4.20264 11.8864 4.39714 12.0809C4.49436 12.1781 4.62186 12.2267 4.74929 12.2267C4.87673 12.2267 5.00423 12.1781 5.10145 12.0809L8.36293 8.8194L9.07567 9.53213L5.81419 12.7936C5.61968 12.9882 5.61968 13.3035 5.81419 13.498C5.9114 13.5952 6.0389 13.6438 6.16634 13.6438C6.29377 13.6438 6.42127 13.5952 6.51849 13.498L9.77997 10.2365L10.4927 10.9492L7.23123 14.2107C7.03673 14.4053 7.03673 14.7206 7.23123 14.9151C7.32845 15.0123 7.45595 15.0609 7.58338 15.0609C7.71082 15.0609 7.83832 15.0123 7.93553 14.9151L11.197 11.6536L11.9098 12.3664L8.64827 15.6278C8.45377 15.8224 8.45377 16.1377 8.64827 16.3322C8.74549 16.4294 8.87299 16.478 9.00043 16.478C9.12786 16.478 9.25536 16.4294 9.35258 16.3322L12.6141 13.0707L13.3269 13.7835L10.0654 17.045C9.87088 17.2396 9.87088 17.5549 10.0654 17.7494C10.1626 17.8466 10.2901 17.8952 10.4175 17.8952C10.545 17.8952 10.6725 17.8466 10.7697 17.7494L14.0312 14.4878L14.7691 15.2257C13.2398 16.5575 11.7184 17.8971 10.2142 19.2385C10.2135 19.2385 10.2135 19.2385 10.2135 19.2392C9.76669 19.6366 9.27927 20.0945 8.79842 20.5281C8.50384 20.7412 8.55995 21.1158 8.70611 21.2619C8.70611 21.2619 8.70611 21.2626 8.70678 21.2626C9.18623 21.843 9.45119 22.5841 9.45119 23.3504C9.45119 24.2462 9.10654 25.0842 8.4804 25.7098C8.47409 25.7161 6.9848 27.2054 6.97829 27.2119C4.81245 29.4282 0.998269 27.9158 0.996078 24.7769C0.997406 22.8712 2.5365 21.2973 4.48101 21.2959C5.54013 21.2965 6.52892 21.768 7.19364 22.5881C7.37394 22.8103 7.70497 22.8344 7.91482 22.6439C7.91747 22.6419 7.91946 22.6399 7.92212 22.6373L7.92677 22.6332C8.16005 22.4235 8.14359 22.0456 7.88294 21.8589C7.03161 20.8682 5.79313 20.2998 4.48433 20.2998H4.47769C1.98759 20.2998 -0.00287208 22.3275 4.9798e-05 24.7769C-0.00214161 26.6226 1.12577 28.2529 2.79436 28.9306C3.78514 29.3318 4.87049 29.3595 5.85091 29.0452C4.91644 31.9522 7.09131 34.9005 10.1141 34.9005H10.1194C12.5895 34.9005 14.6025 32.9009 14.5998 30.4208C14.6011 29.2421 14.1469 28.1297 13.3228 27.2876C13.3233 27.2871 14.3398 26.1316 14.3398 26.1316C16.1341 24.1349 17.9089 22.1292 19.6622 20.1186L20.4126 20.869L17.1511 24.1305C16.9566 24.3251 16.9566 24.6404 17.1511 24.8349C17.2484 24.9321 17.3759 24.9807 17.5034 24.9807C17.6308 24.9807 17.7583 24.9321 17.8556 24.8349L21.1171 21.5734L21.8298 22.2861L18.5683 25.5476C18.3738 25.7422 18.3738 26.0575 18.5683 26.252C18.6656 26.3492 18.7931 26.3978 18.9205 26.3978C19.048 26.3978 19.1755 26.3492 19.2727 26.252L22.5342 22.9905L23.2469 23.7032L19.9854 26.9646C19.7909 27.1592 19.7909 27.4745 19.9854 27.669C20.0827 27.7662 20.2102 27.8148 20.3376 27.8148C20.4651 27.8148 20.5926 27.7662 20.6899 27.669L23.9513 24.4075L24.664 25.1202L21.4025 28.3818C21.208 28.5763 21.208 28.8916 21.4025 29.0861C21.4998 29.1833 21.6273 29.232 21.7548 29.232C21.8822 29.232 22.0097 29.1833 22.107 29.0861L25.3684 25.8246L26.0812 26.5373L22.8197 29.7988C22.6252 29.9934 22.6252 30.3087 22.8197 30.5032C22.917 30.6004 23.0445 30.649 23.1719 30.649C23.2994 30.649 23.4269 30.6004 23.5241 30.5032L26.7856 27.2417L27.4983 27.9544L24.2368 31.2158C24.0423 31.4104 24.0423 31.7257 24.2368 31.9202C24.3341 32.0174 24.4616 32.066 24.589 32.066C24.7165 32.066 24.844 32.0174 24.9413 31.9202L28.2027 28.6587L28.9154 29.3714L25.6539 32.6329C25.4594 32.8275 25.4594 33.1428 25.6539 33.3373C25.7512 33.4345 25.8787 33.4831 26.0061 33.4831C26.1336 33.4831 26.2611 33.4345 26.3584 33.3373L29.6198 30.0758L30.3325 30.7885L27.071 34.0499C26.8765 34.2445 26.8765 34.5598 27.071 34.7543C27.1683 34.8515 27.2958 34.9001 27.4233 34.9001C27.5507 34.9001 27.6782 34.8515 27.7755 34.7543L31.3886 31.1411C31.3888 31.1409 31.389 31.1407 31.3892 31.1406C31.3894 31.1405 31.3895 31.1403 31.3896 31.1401L32.4456 30.0841C32.916 29.6137 33.175 28.9884 33.175 28.3232C33.175 27.658 32.916 27.0326 32.4457 26.5623L22.6015 16.7188C26.4201 12.2642 30.122 7.79601 33.669 3.35688C34.1503 2.75451 34.1017 1.88897 33.5561 1.34351ZM4.8161 3.86376L5.5204 3.15946C6.10292 2.57694 7.05087 2.57694 7.63345 3.15946L17.413 12.939C16.782 13.4811 16.1517 14.0245 15.5225 14.5703L4.8161 3.86376ZM31.7411 27.2671C32.0234 27.5493 32.1788 27.9245 32.1788 28.3236C32.1788 28.7227 32.0234 29.0979 31.7411 29.38L31.0368 30.0843C30.7077 29.7554 21.0244 20.072 20.3178 19.3654C20.8643 18.7364 21.409 18.1069 21.951 17.477L31.7411 27.2671ZM13.876 25.1563C13.6346 24.9715 12.991 24.6516 12.8839 23.7429C12.854 23.4919 12.6422 23.3033 12.3905 23.3033C12.0896 23.3033 11.8603 23.5646 11.8945 23.8598C11.8951 23.8598 11.8951 23.8598 11.8951 23.8598C11.9901 24.6719 12.431 25.3898 13.1044 25.8287C13.1396 25.852 13.1748 25.8759 13.2113 25.9024C12.8659 26.2965 12.5807 26.6284 12.2537 26.9895C12.1628 27.0904 12.1163 27.2265 12.1269 27.362C12.1369 27.4974 12.2039 27.6249 12.3095 27.7106C13.1454 28.3929 13.603 29.3749 13.6038 30.4207C13.6024 32.3401 12.0561 33.903 10.1175 33.9044C8.20143 33.9018 6.63125 32.3576 6.63125 30.4207C6.63351 28.8444 7.63046 28.0003 7.70703 27.8919L9.18457 26.4144C9.99858 25.6004 10.4476 24.4991 10.4476 23.3504C10.4482 22.511 10.2078 21.7002 9.75367 21.0069C10.1436 20.6503 10.4827 20.3339 10.8766 19.9829L10.8786 19.9802C21.6772 10.3519 32.037 2.07517 32.2317 1.96368C32.0982 2.09722 12.6661 21.5209 12.5765 21.6219C12.3939 21.8278 12.4131 22.1432 12.6183 22.3252C12.8246 22.5089 13.1405 22.4873 13.3215 22.2833C13.3811 22.2155 32.7938 2.80989 32.9361 2.66758C32.8954 2.73924 24.8745 12.8987 13.876 25.1563Z" fill="#54514C" fill-opacity="0.75"/>
</svg>
