<svg width="20" height="21" viewBox="0 0 20 21" fill="none" xmlns="http://www.w3.org/2000/svg">
<path d="M18.765 1.24756C18.7641 1.24667 18.7632 1.24589 18.7623 1.245C18.6135 1.08925 18.4083 1 18.1989 1H18.1978C18.0168 1 17.8396 1.06568 17.699 1.18477C15.7848 2.79865 13.8635 4.46449 11.9883 6.1359C11.5323 6.54229 11.0759 6.95186 10.62 7.3637L5.41411 1.86869C4.90005 1.32615 4.06368 1.32623 3.54966 1.86869L1.07723 4.47852C0.974257 4.58725 0.974257 4.76345 1.07723 4.87214C1.1802 4.9808 1.34716 4.9808 1.4501 4.87214L3.1768 3.04955L3.55413 3.44785L1.82746 5.27044C1.72449 5.37917 1.72449 5.55536 1.82746 5.66405C1.87893 5.71838 1.94643 5.74555 2.0139 5.74555C2.08136 5.74555 2.14886 5.71838 2.20033 5.66405L3.92703 3.84146L4.30436 4.23976L2.57766 6.06235C2.47469 6.17108 2.47469 6.34728 2.57766 6.45597C2.62913 6.5103 2.69663 6.53746 2.7641 6.53746C2.83156 6.53746 2.89906 6.5103 2.95053 6.45597L4.67723 4.63334L5.05456 5.03164L3.3279 6.85423C3.22493 6.96296 3.22493 7.13915 3.3279 7.24785C3.37937 7.30217 3.44687 7.32934 3.51433 7.32934C3.5818 7.32934 3.6493 7.30217 3.70077 7.24785L5.42743 5.42526L5.80476 5.82355L4.0781 7.64614C3.97513 7.75487 3.97513 7.93107 4.0781 8.03976C4.12957 8.09409 4.19707 8.12125 4.26453 8.12125C4.332 8.12125 4.3995 8.09409 4.45097 8.03976L6.17763 6.21717L6.55496 6.61547L4.8283 8.43806C4.72533 8.54679 4.72533 8.72298 4.8283 8.83167C4.87977 8.886 4.94727 8.91317 5.01473 8.91317C5.0822 8.91317 5.1497 8.886 5.20117 8.83167L6.92783 7.00908L7.30516 7.40738L5.5785 9.22997C5.47553 9.3387 5.47553 9.51489 5.5785 9.62359C5.62997 9.67792 5.69747 9.70508 5.76493 9.70508C5.8324 9.70508 5.8999 9.67792 5.95137 9.62359L7.67803 7.801L8.0554 8.19933L6.32873 10.0219C6.22576 10.1307 6.22576 10.3068 6.32873 10.4155C6.3802 10.4699 6.4477 10.497 6.51517 10.497C6.58263 10.497 6.65013 10.4699 6.7016 10.4155L8.4283 8.59291L8.81892 9.00523C8.00931 9.74946 7.20388 10.4981 6.40752 11.2477C6.40717 11.2477 6.40717 11.2477 6.40717 11.2481C6.1706 11.4702 5.91255 11.726 5.65799 11.9683C5.50203 12.0874 5.53174 12.2968 5.60912 12.3784C5.60912 12.3784 5.60912 12.3788 5.60947 12.3788C5.8633 12.7031 6.00357 13.1173 6.00357 13.5455C6.00357 14.0461 5.82111 14.5144 5.48962 14.864C5.48628 14.8675 4.69783 15.6998 4.69439 15.7034C3.54777 16.9419 1.5285 16.0968 1.52734 14.3427C1.52804 13.2777 2.34286 12.3982 3.3723 12.3974C3.93301 12.3978 4.45649 12.6613 4.8084 13.1196C4.90385 13.2437 5.0791 13.2572 5.1902 13.1507C5.1916 13.1496 5.19266 13.1485 5.19406 13.147L5.19653 13.1447C5.32003 13.0276 5.31131 12.8164 5.17332 12.7121C4.72262 12.1584 4.06695 11.8408 3.37406 11.8408H3.37054C2.05225 11.8408 0.998479 12.9739 1.00003 14.3427C0.998866 15.3741 1.596 16.2851 2.47937 16.6639C3.0039 16.8881 3.57849 16.9035 4.09754 16.7279C3.60282 18.3524 4.75422 20 6.35454 20H6.35735C7.66502 20 8.73075 18.8826 8.72931 17.4966C8.73001 16.8379 8.48954 16.2163 8.05325 15.7457C8.0535 15.7454 8.59164 15.0997 8.59164 15.0997C9.54156 13.9839 10.4812 12.8631 11.4094 11.7395L11.8067 12.1589L10.08 13.9815C9.97704 14.0902 9.97704 14.2664 10.08 14.3751C10.1315 14.4294 10.199 14.4566 10.2665 14.4566C10.3339 14.4566 10.4014 14.4294 10.453 14.3751L12.1796 12.5525L12.5569 12.9508L10.8303 14.7734C10.7273 14.8821 10.7273 15.0583 10.8303 15.167C10.8818 15.2213 10.9493 15.2485 11.0168 15.2485C11.0842 15.2485 11.1517 15.2213 11.2032 15.167L12.9299 13.3444L13.3072 13.7427L11.5805 15.5652C11.4775 15.674 11.4775 15.8502 11.5805 15.9589C11.632 16.0132 11.6995 16.0404 11.767 16.0404C11.8345 16.0404 11.902 16.0132 11.9535 15.9589L13.6801 14.1363L14.0574 14.5345L12.3308 16.3572C12.2278 16.4659 12.2278 16.6421 12.3308 16.7508C12.3823 16.8051 12.4498 16.8323 12.5172 16.8323C12.5847 16.8323 12.6522 16.8051 12.7037 16.7508L14.4304 14.9282L14.8077 15.3264L13.081 17.149C12.9781 17.2578 12.9781 17.434 13.081 17.5427C13.1325 17.597 13.2 17.6241 13.2675 17.6241C13.335 17.6241 13.4025 17.597 13.454 17.5427L15.1806 15.7201L15.5579 16.1183L13.8313 17.9409C13.7283 18.0496 13.7283 18.2258 13.8313 18.3345C13.8828 18.3889 13.9503 18.416 14.0177 18.416C14.0852 18.416 14.1527 18.3889 14.2042 18.3345L15.9309 16.5119L16.3082 16.9102L14.5815 18.7328C14.4785 18.8415 14.4785 19.0177 14.5815 19.1264C14.633 19.1807 14.7005 19.2079 14.768 19.2079C14.8354 19.2079 14.9029 19.1807 14.9544 19.1264L16.6811 17.3038L17.0584 17.7021L15.3317 19.5247C15.2288 19.6334 15.2288 19.8096 15.3317 19.9183C15.3832 19.9726 15.4507 19.9998 15.5182 19.9998C15.5857 19.9998 15.6532 19.9726 15.7047 19.9183L17.6175 17.8991C17.6176 17.8991 17.6177 17.8989 17.6178 17.8989C17.6179 17.8988 17.618 17.8987 17.618 17.8986L18.1771 17.3085C18.4261 17.0456 18.5633 16.6962 18.5633 16.3244C18.5633 15.9527 18.4261 15.6032 18.1771 15.3404L12.9655 9.83964C14.9871 7.35027 16.9469 4.85336 18.8247 2.37268C19.0796 2.03606 19.0538 1.55237 18.765 1.24756ZM3.5497 2.65593L3.92257 2.26235C4.23096 1.93683 4.73281 1.93683 5.04124 2.26235L10.2186 7.72741C9.88461 8.0303 9.55088 8.334 9.21781 8.639L3.5497 2.65593ZM17.8041 15.7343C17.9535 15.892 18.0358 16.1016 18.0358 16.3247C18.0358 16.5477 17.9535 16.7573 17.8041 16.915L17.4313 17.3086C17.257 17.1248 12.1306 11.7135 11.7565 11.3186C12.0458 10.9671 12.3342 10.6153 12.6211 10.2634L17.8041 15.7343ZM8.34611 14.5547C8.21831 14.4514 7.87758 14.2727 7.82091 13.7648C7.80509 13.6246 7.69294 13.5192 7.55969 13.5192C7.4004 13.5192 7.27901 13.6652 7.29708 13.8302C7.29743 13.8302 7.29743 13.8302 7.29743 13.8302C7.3477 14.284 7.58114 14.6852 7.93762 14.9305C7.95626 14.9435 7.97489 14.9568 7.99423 14.9716C7.81134 15.1919 7.66038 15.3773 7.48727 15.5791C7.43911 15.6355 7.4145 15.7116 7.42012 15.7873C7.4254 15.863 7.46091 15.9342 7.5168 15.9821C7.95932 16.3634 8.20158 16.9122 8.202 17.4966C8.20126 18.5692 7.38265 19.4426 6.35633 19.4433C5.34193 19.4419 4.51066 18.5789 4.51066 17.4966C4.51186 16.6157 5.03966 16.144 5.08019 16.0834L5.86242 15.2578C6.29337 14.8029 6.53106 14.1874 6.53106 13.5455C6.53141 13.0764 6.40414 12.6233 6.16371 12.2359C6.37015 12.0367 6.54969 11.8598 6.7582 11.6637L6.75926 11.6622C12.4762 6.28163 17.9608 1.65643 18.0639 1.59412C17.9932 1.66875 7.70559 12.5232 7.65813 12.5796C7.56145 12.6946 7.57165 12.8709 7.68028 12.9726C7.78948 13.0752 7.95671 13.0632 8.05259 12.9492C8.08412 12.9113 18.3614 2.06701 18.4368 1.98748C18.4152 2.02752 14.1689 7.70489 8.34611 14.5547Z" fill="#FF3E79" stroke="#FF3E79" stroke-width="0.25"/>
</svg>
