<svg width="40" height="40" viewBox="0 0 40 40" fill="none" xmlns="http://www.w3.org/2000/svg">
<circle cx="20" cy="20" r="20" fill="#FF3E79"/>
<path d="M17.5901 22.4098L31.9999 8" stroke="white" stroke-width="1.5" stroke-linecap="round" stroke-linejoin="round"/>
<path d="M32 8L23.4851 31.5797C23.4276 31.7051 23.3354 31.8114 23.2193 31.8859C23.1032 31.9604 22.9681 32 22.8301 32C22.6922 32 22.5571 31.9604 22.441 31.8859C22.3249 31.8114 22.2326 31.7051 22.1751 31.5797L17.5902 22.4098L8.42034 17.8249C8.29492 17.7674 8.18863 17.6751 8.11412 17.559C8.03961 17.4429 8 17.3078 8 17.1699C8 17.0319 8.03961 16.8968 8.11412 16.7807C8.18863 16.6646 8.29492 16.5724 8.42034 16.5149L32 8Z" stroke="white" stroke-width="1.5" stroke-linecap="round" stroke-linejoin="round"/>
</svg>
